<?xml version="1.0" encoding="UTF-8" standalone="no"?>
<!-- Generator: Adobe Illustrator 16.0.0, SVG Export Plug-In . SVG Version: 6.00 Build 0)  -->

<svg
   xmlns:dc="http://purl.org/dc/elements/1.1/"
   xmlns:cc="http://creativecommons.org/ns#"
   xmlns:rdf="http://www.w3.org/1999/02/22-rdf-syntax-ns#"
   xmlns:svg="http://www.w3.org/2000/svg"
   xmlns="http://www.w3.org/2000/svg"
   xmlns:sodipodi="http://sodipodi.sourceforge.net/DTD/sodipodi-0.dtd"
   xmlns:inkscape="http://www.inkscape.org/namespaces/inkscape"
   version="1.1"
   id="Capa_1"
   x="0px"
   y="0px"
   width="99.273px"
   height="99.272px"
   viewBox="0 0 99.273 99.272"
   style="enable-background:new 0 0 99.273 99.272;"
   xml:space="preserve"
   inkscape:version="0.48.4 r9939"
   sodipodi:docname="logo-inverse.svg"><metadata
     id="metadata42"><rdf:RDF><cc:Work
         rdf:about=""><dc:format>image/svg+xml</dc:format><dc:type
           rdf:resource="http://purl.org/dc/dcmitype/StillImage" /><dc:title></dc:title></cc:Work></rdf:RDF></metadata><defs
     id="defs40" /><sodipodi:namedview
     pagecolor="#ffffff"
     bordercolor="#666666"
     borderopacity="1"
     objecttolerance="10"
     gridtolerance="10"
     guidetolerance="10"
     inkscape:pageopacity="0"
     inkscape:pageshadow="2"
     inkscape:window-width="1098"
     inkscape:window-height="823"
     id="namedview38"
     showgrid="false"
     inkscape:zoom="4.7546134"
     inkscape:cx="58.881483"
     inkscape:cy="67.94153"
     inkscape:window-x="328"
     inkscape:window-y="57"
     inkscape:window-maximized="0"
     inkscape:current-layer="g5" /><g
     id="g5"><path
       inkscape:connector-curvature="0"
       d="m 59.851,16.371 c 3.426,0 6.202,2.781 6.202,6.205 0,3.426 -2.776,6.203 -6.202,6.203 -3.431,0 -6.205,-2.777 -6.205,-6.203 -0.005,-3.424 2.774,-6.205 6.205,-6.205 z m -1.985,82.901 c 10.648,0 20.484,-3.383 28.56,-9.098 2.632,-1.861 2.724,-5.504 0.463,-7.806 L 60.581,55.612 C 58.318,53.31 58.352,49.613 60.654,47.353 L 89.308,19.19 c 2.3,-2.26 2.368,-6 -0.132,-8.037 C 80.636,4.186 69.746,0 57.866,0 30.456,0 8.23,22.223 8.23,49.636 c 0,27.414 22.226,49.636 49.636,49.636"
       id="path4134"
       style="fill:#f9f9f9" /><path
       style="fill:#000000"
       d="M 52.719047,98.975186 C 41.256511,97.821109 30.295902,92.444356 22.165601,83.987124 9.170314,70.469276 4.9333179,51.254915 11.00869,33.391629 12.098544,30.187152 14.575622,25.190182 16.50805,22.297854 22.211519,13.761286 30.037151,7.3801189 39.435637,3.602269 c 5.97539,-2.4018897 11.654201,-3.46933869 18.4363,-3.4654806 9.949629,0.00566 19.036936,2.7199565 27.236705,8.1353589 4.800926,3.1706927 5.799947,4.3368307 5.811652,6.7838227 0.01239,2.588576 0.552962,1.972429 -15.971753,18.204395 -11.257136,11.057708 -15.080132,14.937237 -15.440664,15.668992 -0.677504,1.375108 -0.673334,3.948079 0.0085,5.240308 0.2975,0.563835 5.613016,6.120922 14.162491,14.806129 14.888611,15.124984 14.688233,14.890165 14.683097,17.206667 -0.0031,1.388929 -0.512746,2.58567 -1.492479,3.504462 -1.750759,1.641862 -8.327552,5.185719 -12.17178,6.558676 -7.002065,2.500771 -14.724998,3.459902 -21.978654,2.729587 l -2e-6,0 z m 9.779975,-70.809534 c 1.258475,-0.649759 2.349075,-1.729449 2.965932,-2.936262 0.74523,-1.457963 0.717053,-3.930498 -0.06173,-5.416879 -2.062955,-3.937331 -7.205164,-4.596156 -10.166417,-1.302531 -2.195255,2.441653 -2.0846,6.088311 0.255762,8.428674 1.319504,1.319504 2.673503,1.842072 4.587751,1.770613 1.046756,-0.03907 1.745788,-0.196186 2.418703,-0.543615 z"
       id="path3021"
       inkscape:connector-curvature="0" /><path
       style="fill:#000000"
       d="m 58.080898,28.357709 c -2.444904,-0.743706 -4.191311,-3.073016 -4.20046,-5.602457 -0.0063,-1.745992 0.489456,-3.065423 1.569311,-4.176511 1.424995,-1.466212 2.431488,-1.899771 4.420248,-1.904074 1.496021,-0.0032 1.810832,0.06862 2.839347,0.648102 3.546923,1.99839 4.250403,6.580437 1.441537,9.389303 -1.309065,1.309065 -2.562413,1.847533 -4.24574,1.824072 -0.713392,-0.0099 -1.534301,-0.09024 -1.824243,-0.178435 l 0,0 z"
       id="path3023"
       inkscape:connector-curvature="0" /><path
       style="fill:#ffffff"
       d="M 50.826149,98.604041 C 37.402433,96.524875 25.534366,89.259485 17.662692,78.302043 12.710518,71.408572 9.8795376,64.127513 8.7464941,55.370282 8.2793686,51.759894 8.4296407,45.373696 9.0681817,41.699349 11.302228,28.844006 18.025021,17.788644 28.321691,10.037729 34.614934,5.3004317 42.462323,1.96885 50.090022,0.79606099 52.957346,0.35519831 57.581737,0.17998697 60.889352,0.38689016 70.29187,0.97505116 78.57129,3.8774548 86.383069,9.3238751 c 3.239191,2.2583849 4.11327,3.2901859 4.388134,5.1799479 0.208675,1.434706 -0.16912,2.513525 -1.402804,4.00578 -0.598499,0.72394 -7.586061,7.799431 -15.527918,15.723314 -15.770591,15.734898 -14.918374,14.748126 -14.91576,17.270809 0.0019,1.779228 0.342293,2.62761 1.622143,4.042278 0.645133,0.713093 5.82026,6.065671 11.50028,11.89462 16.295214,16.722464 16.11416,16.513155 16.106549,18.620153 -0.0088,2.443543 -0.839551,3.465382 -4.652587,5.72297 -5.177714,3.065576 -9.95385,5.005663 -15.007906,6.096277 -3.803526,0.820763 -5.169747,0.961113 -10.095458,1.037081 -4.158317,0.06413 -5.492433,0.009 -7.571593,-0.313064 z M 62.56561,28.254317 c 1.031333,-0.504009 2.497078,-1.970921 2.996271,-2.99866 0.603387,-1.242254 0.6493,-3.482695 0.101262,-4.941185 -0.50105,-1.333437 -1.710339,-2.68135 -3.048166,-3.397587 -1.213339,-0.649588 -4.253446,-0.64433 -5.479167,0.0095 -1.211047,0.64598 -2.408307,1.897586 -2.974784,3.109819 -0.553797,1.185091 -0.67167,3.311413 -0.251848,4.54312 0.569241,1.670094 2.142969,3.317012 3.733466,3.907104 1.076298,0.39932 3.903695,0.266026 4.922966,-0.232086 l 0,0 z"
       id="path3025"
       inkscape:connector-curvature="0" /></g><g
     id="g8" /><g
     id="g10" /><g
     id="g12" /><g
     id="g14" /><g
     id="g16" /><g
     id="g18" /><g
     id="g20" /><g
     id="g22" /><g
     id="g24" /><g
     id="g26" /><g
     id="g28" /><g
     id="g30" /><g
     id="g32" /><g
     id="g34" /><g
     id="g36" /></svg>