<?xml version="1.0" encoding="iso-8859-1"?>
<!-- Generator: Adobe Illustrator 16.0.0, SVG Export Plug-In . SVG Version: 6.00 Build 0)  -->
<!DOCTYPE svg PUBLIC "-//W3C//DTD SVG 1.1//EN" "http://www.w3.org/Graphics/SVG/1.1/DTD/svg11.dtd">
<svg version="1.1" id="Capa_1" xmlns="http://www.w3.org/2000/svg" xmlns:xlink="http://www.w3.org/1999/xlink" x="0px" y="0px"
	 width="99.273px" height="99.272px" viewBox="0 0 99.273 99.272" style="enable-background:new 0 0 99.273 99.272;"
	 xml:space="preserve">
<g>
	<g>
		<path id="path4134" d="M59.851,16.371c3.426,0,6.202,2.781,6.202,6.205c0,3.426-2.776,6.203-6.202,6.203
			c-3.431,0-6.205-2.777-6.205-6.203C53.641,19.152,56.42,16.371,59.851,16.371z M57.866,99.272c10.648,0,20.484-3.383,28.56-9.098
			c2.632-1.861,2.724-5.504,0.463-7.806L60.581,55.612c-2.263-2.302-2.229-5.999,0.073-8.259L89.308,19.19
			c2.3-2.26,2.368-6-0.132-8.037C80.636,4.186,69.746,0,57.866,0C30.456,0,8.23,22.223,8.23,49.636
			C8.23,77.05,30.456,99.272,57.866,99.272"/>
	</g>
</g>
<g>
</g>
<g>
</g>
<g>
</g>
<g>
</g>
<g>
</g>
<g>
</g>
<g>
</g>
<g>
</g>
<g>
</g>
<g>
</g>
<g>
</g>
<g>
</g>
<g>
</g>
<g>
</g>
<g>
</g>
</svg>
